# xmcd
#
# Track frame offsets: 
#        150
#        15495
#        29288
#        46349
#        62374
#        75685
#        86473
#        104318
#        118221
#        139259
#        153877
#        171307
#        184683
#        206462
#        227277
#        243004
#        262402
#        274024
#        290740
#        309898
#        323854
#        334848
#
# Disc length: 4611 seconds
#
# Revision: 3
# Processed by: cddbd v1.4PL0 Copyright (c) Steve Scherf et al.
# Submitted via: ExactAudioCopy v0.90b4
#
DISCID=29120116
DTITLE=Dwight Yoakam - Reprise Please Baby (The Warner Bros. Years) - 
DTITLE=Disc 3
DYEAR=2002
DGENRE=Country
TTITLE0=Only Want You More
TTITLE1=Same Fool
TTITLE2=Things Change
TTITLE3=These Arms
TTITLE4=A Long Way Home
TTITLE5=Crazy Little Thing Called Love
TTITLE6=Thinking About Leaving
TTITLE7=New San Antonio Rose (Asleep At The Wheel Featuring Dwight Yoa
TTITLE7=kam)
TTITLE8=Two Doors Down (Acoustic)
TTITLE9=Bury Me (Acoustic)
TTITLE10=Love Caught Up To Me
TTITLE11=What Do You Know About Love
TTITLE12=Free To Go
TTITLE13=A Place To Cry
TTITLE14=I Want You To Want Me
TTITLE15=Alright, I'm Wrong (With Buck Owens)
TTITLE16=Who At The Door Is Standing (With Bekka Bramlett)
TTITLE17=The First Thing Smokin'
TTITLE18=I'm Bad, I'm Nationwide
TTITLE19=Louisville
TTITLE20=Sittin' Pretty
TTITLE21=Mercury Blues
EXTD=
EXTT0=
EXTT1=
EXTT2=
EXTT3=
EXTT4=
EXTT5=
EXTT6=
EXTT7=Asleep At The Wheel featuring Dwight Yoakam
EXTT8=
EXTT9=
EXTT10=
EXTT11=
EXTT12=
EXTT13=
EXTT14=
EXTT15=with Buck Owens
EXTT16=with Bekka Bramlett
EXTT17=
EXTT18=
EXTT19=
EXTT20=
EXTT21=
PLAYORDER=
